# xmcd
#
# Track frame offsets:
#	150
#	16837
#	37137
#	56467
#	80862
#	100712
#	129017
#	146935
#	164750
#	181035
#	198470
#	229399
#	245677
#	264487
#	281117
#	309320
#
# Disc length: 4401 seconds
#
# Revision: 0
# Processed by: cddbd v1.4PL0 Copyright (c) Steve Scherf et al.
# Submitted via: dBpowerAMP V4.0
#
DISCID=e6112f10
DTITLE=Sade - The Best of
DYEAR=1900
DGENRE=Blues
TTITLE0=Your love is king
TTITLE1=Hang on to your love
TTITLE2=Smooth operator
TTITLE3=Jezebel
TTITLE4=The sweetest taboo
TTITLE5=It is a crime
TTITLE6=Never as good as the first time
TTITLE7=Love is stronger than pride
TTITLE8=Paradise
TTITLE9=Nothing can come between us
TTITLE10=No ordinary love
TTITLE11=Like a tattoo
TTITLE12=Kiss of life
TTITLE13=Please send me someone to love
TTITLE14=Cherish the day
TTITLE15=Pearls
EXTD=
EXTT0=
EXTT1=
EXTT2=
EXTT3=
EXTT4=
EXTT5=
EXTT6=
EXTT7=
EXTT8=
EXTT9=
EXTT10=
EXTT11=
EXTT12=
EXTT13=
EXTT14=
EXTT15=
PLAYORDER=
